<svg xmlns="http://www.w3.org/2000/svg" xmlns:xlink="http://www.w3.org/1999/xlink" version="1.1" x="0px" y="0px" viewBox="0 0 100 100" enable-background="new 0 0 100 100" xml:space="preserve"><path stroke="#000000" stroke-width="2" stroke-linecap="round" stroke-linejoin="round" stroke-miterlimit="10" d="M47.976,13.04  c-6.731,0-6.362,3.043-6.362,4.334c0,1.291,0,3.504,0,3.504h6.362h6.362c0,0,0-2.213,0-3.504  C54.339,16.082,54.708,13.04,47.976,13.04z"/><path fill="none" stroke="#000000" stroke-width="2" stroke-linecap="round" stroke-linejoin="round" stroke-miterlimit="10" d="  M54.06,26.461c-0.875-0.875-1.5-1.417-1.5-2.417s0-3.167,0-3.167h-4.583h-4.583c0,0,0,2.167,0,3.167s-0.625,1.542-1.5,2.417  s-7.083,4.583-7.083,9.75c0,1.286,0,3,0,3h13.167h13.167c0,0,0-1.714,0-3C61.143,31.044,54.935,27.336,54.06,26.461z"/><rect x="36.101" y="39.211" fill="none" stroke="#000000" stroke-width="2" stroke-linecap="round" stroke-linejoin="round" stroke-miterlimit="10" width="23.75" height="14.083"/><rect x="39.262" y="42.161" stroke="#000000" stroke-linecap="round" stroke-linejoin="round" stroke-miterlimit="10" width="17.428" height="8.183"/><path fill="none" stroke="#000000" stroke-width="2" stroke-linecap="round" stroke-linejoin="round" stroke-miterlimit="10" d="  M61.143,58.794c0,1.657-1.343,3-3,3H37.81c-1.657,0-3-1.343-3-3v-2.5c0-1.657,1.343-3,3-3h20.333c1.657,0,3,1.343,3,3V58.794z"/><path fill="none" stroke="#000000" stroke-width="2" stroke-linecap="round" stroke-linejoin="round" stroke-miterlimit="10" d="  M61.143,67.292c0,1.657-1.343,3-3,3H37.81c-1.657,0-3-1.343-3-3v-2.5c0-1.657,1.343-3,3-3h20.333c1.657,0,3,1.343,3,3V67.292z"/><path fill="none" stroke="#000000" stroke-width="2" stroke-linecap="round" stroke-linejoin="round" stroke-miterlimit="10" d="  M34.518,83.794c0,1.657,1.343,3,3,3h20.917c1.657,0,3-1.343,3-3V73.292c0-1.657-1.343-3-3-3H37.518c-1.657,0-3,1.343-3,3V83.794z"/></svg>
