<svg xmlns="http://www.w3.org/2000/svg" xmlns:xlink="http://www.w3.org/1999/xlink" version="1.1" x="0px" y="0px" viewBox="0 0 100 100" style="enable-background:new 0 0 100 100;" xml:space="preserve"><style type="text/css">
	.st0{fill:none;stroke:#000000;stroke-width:2;stroke-linecap:round;stroke-linejoin:round;stroke-miterlimit:10;}
</style><path class="st0" d="M65.7,40.3l1.1-12H33l1.1,12l1.8,19.9l1.2,12.8c0.2,1.9,1.8,3.3,3.7,3.3H59  c1.9,0,3.5-1.4,3.7-3.3l1.2-12.8L65.7,40.3z"/><path class="st0" d="M32,24.1h36c1.2,0,2.1,0.9,2.1,2.1v0c0,1.2-0.9,2.1-2.1,2.1H32c-1.2,0-2.1-0.9-2.1-2.1v0  C29.9,25,30.9,24.1,32,24.1z"/><path class="st0" d="M64.2,17.7H35.6c-1.2,0-2.2,0.8-2.5,2l-0.6,2.5c0,1,0.8,1.8,1.8,1.8h31c1,0,1.8-0.8,1.8-1.8  l-0.6-2.5C66.4,18.6,65.4,17.7,64.2,17.7z"/><line class="st0" x1="33.9" y1="38.6" x2="44.5" y2="38.6"/><line class="st0" x1="53.1" y1="56.9" x2="63.7" y2="56.8"/><circle class="st0" cx="41.5" cy="48.1" r="0.9"/><circle class="st0" cx="50.8" cy="48.1" r="0.9"/><circle class="st0" cx="58.9" cy="48.1" r="0.9"/></svg>
